<svg xmlns="http://www.w3.org/2000/svg" width="96" height="96" fill="none" viewBox="0 0 96 96">
  <g clip-path="url(#a)">
    <mask id="b" width="96" height="96" x="0" y="0" maskUnits="userSpaceOnUse" style="mask-type:luminance">
      <path fill="#fff" d="M0 0h96v96H0V0Z"/>
    </mask>
    <g mask="url(#b)">
      <path fill="url(#c)" d="M48 0c26.51 0 48 21.49 48 48S74.51 96 48 96 0 74.51 0 48 21.49 0 48 0Z"/>
      <path fill="#fff" d="m35.58 42.844 7.268-7.244 1.532-1.532 3.632-3.632L60.38 42.844l7.2-7.244L48.012 16 28.38 35.6l7.2 7.244Z"/>
      <path fill="#fff" d="m40.792 47.988 7.23-7.23 7.229 7.23-7.23 7.23-7.229-7.23Z"/>
      <path fill="#fff" d="M60.38 53.172 48.008 65.544 43.664 61.2l-.8-.8-7.284-7.228-7.2 7.2 19.632 19.6 19.568-19.6-7.2-7.2ZM16 48.008l7.23-7.23 7.229 7.23-7.23 7.23L16 48.007Zm49.544-.004 7.23-7.23 7.229 7.23-7.23 7.23-7.23-7.23Z"/>
    </g>
  </g>
  <defs>
    <linearGradient id="c" x1="75.697" x2="2.727" y1="108.719" y2="-14.849" gradientUnits="userSpaceOnUse">
      <stop stop-color="#E9B204"/>
      <stop offset="1" stop-color="#F0B90B"/>
    </linearGradient>
    <clipPath id="a">
      <path fill="#fff" d="M0 0h96v96H0z"/>
    </clipPath>
  </defs>
</svg>
