<svg xmlns="http://www.w3.org/2000/svg" width="97" height="96" fill="none" viewBox="0 0 97 96">
  <rect width="96" height="96" x=".286" fill="url(#a)" rx="48"/>
  <path fill="#fff" d="M61.984 55.582c0-7.15-4.29-9.602-12.87-10.623-6.129-.817-7.354-2.451-7.354-5.312 0-2.86 2.043-4.698 6.128-4.698 3.677 0 5.72 1.226 6.742 4.29.204.613.817 1.021 1.43 1.021h3.268c.817 0 1.43-.613 1.43-1.43v-.204c-.817-4.494-4.494-7.967-9.193-8.375v-4.903c0-.818-.612-1.43-1.634-1.635h-3.064c-.817 0-1.43.613-1.635 1.635v4.698c-6.128.817-10.01 4.903-10.01 10.01 0 6.742 4.086 9.397 12.666 10.419 5.72 1.021 7.559 2.247 7.559 5.515 0 3.27-2.86 5.516-6.742 5.516-5.311 0-7.15-2.247-7.763-5.312-.204-.816-.816-1.225-1.43-1.225H36.04c-.816 0-1.43.613-1.43 1.43v.204c.818 5.107 4.086 8.784 10.828 9.806v4.903c0 .817.613 1.43 1.634 1.634h3.064c.818 0 1.43-.613 1.635-1.634v-4.903c6.128-1.022 10.214-5.312 10.214-10.827Z"/>
  <path fill="#fff" fill-rule="evenodd" d="M19.9 37.809c-5.924 15.73 2.248 33.503 18.182 39.223.613.409 1.226 1.225 1.226 1.838v2.86c0 .41 0 .614-.205.817-.204.818-1.021 1.226-1.838.818-11.44-3.677-20.225-12.462-23.902-23.902-6.128-19.407 4.495-40.04 23.902-46.168.204-.204.612-.204.817-.204.817.204 1.226.817 1.226 1.634v2.86c0 1.021-.409 1.634-1.226 2.043-8.376 3.064-15.117 9.601-18.181 18.181Zm37.992-23.697c.204-.818 1.022-1.226 1.839-.818C70.966 16.973 79.955 25.756 83.632 37.4c6.129 19.407-4.494 40.04-23.901 46.169-.204.204-.613.204-.817.204-.818-.204-1.226-.817-1.226-1.634v-2.86c0-1.022.408-1.635 1.226-2.043 8.375-3.064 15.117-9.601 18.18-18.181 5.925-15.73-2.246-33.503-18.18-39.223-.613-.409-1.226-1.226-1.226-2.043v-2.86c0-.409 0-.613.204-.817Z" clip-rule="evenodd"/>
  <defs>
    <linearGradient id="a" x1="53.522" x2="-38.114" y1="39.273" y2="175.418" gradientUnits="userSpaceOnUse">
      <stop stop-color="#2775CA"/>
      <stop offset="1" stop-color="#00BBF9"/>
    </linearGradient>
  </defs>
</svg>
