<svg xmlns="http://www.w3.org/2000/svg" width="97" height="96" fill="none" viewBox="0 0 97 96">
  <rect width="96" height="96" x=".857" fill="url(#a)" rx="48"/>
  <path fill="#fff" fill-rule="evenodd" d="M75.885 39.477a220.051 220.051 0 0 1-3.848-3.681c-1.94-1.883-3.988-3.872-5.796-5.477l-.183-.129a3.499 3.499 0 0 0-1.017-.568l-1.396-.26c-9.63-1.797-40.844-7.621-41.486-7.543-.19.027-.371.096-.531.202l-.174.137c-.215.218-.377.48-.477.77l-.045.118v.751c2.119 5.901 7.624 19.08 12.707 31.248 4.297 10.287 8.293 19.852 9.686 23.688v.001c.184.568.532 1.647 1.182 1.702h.146c.348 0 1.832-1.96 1.832-1.96S73.009 46.31 75.693 42.885c.347-.422.654-.876.916-1.356a2.208 2.208 0 0 0-.724-2.052Zm-22.594 3.746 11.32-9.388 6.64 6.119-17.96 3.27ZM29.404 26.637l19.49 15.973 12.044-10.157-31.534-5.816Zm21.249 20.158L70.6 43.581 47.795 71.057l2.858-24.262Zm-3.39-1.163L26.756 28.23l17.54 42.845 2.967-25.443Z" clip-rule="evenodd"/>
  <defs>
    <linearGradient id="a" x1="63.694" x2=".857" y1="13.964" y2="143.127" gradientUnits="userSpaceOnUse">
      <stop stop-color="#FC070C"/>
      <stop offset="1" stop-color="#F45C43"/>
    </linearGradient>
  </defs>
</svg>
